# xmcd CD database file generated by MAGIX-FreeDB-MusicFinder_base v2.0beta1
# 
# Track frame offsets:
#      150
#      14928
#      28380
#      39193
#      51579
#      63197
#      76164
#      89745
#      102005
#      113380
#      126036
# 
# Disc length: 1847 seconds
# 
# Revision: 0 
# Processed by: cddbd v1.5.2PL0 Copyright (c) Steve Scherf et al.
# Submitted via: MAGIX-FreeDB-MusicFinder_base v2.0beta1
# 
DISCID=8c07350b
DTITLE=Jeanne Pruett - Satin Sheets
DYEAR=1973
DGENRE=
TTITLE0=Jeanne Pruett - Satin Sheets
TTITLE1=Jeanne Pruett - Walking Piece of Heaven
TTITLE2=Jeanne Pruett - Hold on Woman
TTITLE3=Jeanne Pruett - Baby's Gone
TTITLE4=Jeanne Pruett - Sweet Sweetheart
TTITLE5=Jeanne Pruett - Lonely Women Cryin'
TTITLE6=Jeanne Pruett - What My Thoughts Do All the Time
TTITLE7=Jeanne Pruett - The Only Way to Hold Your Man
TTITLE8=Jeanne Pruett - Is Her Love Any Better Than Mine
TTITLE9=Jeanne Pruett - I've Been So Wrong, For So Long
TTITLE10=Jeanne Pruett - Your Memory's Comin' On
EXTD=
EXTT0=
EXTT1=
EXTT2=
EXTT3=
EXTT4=
EXTT5=
EXTT6=
EXTT7=
EXTT8=
EXTT9=
EXTT10=
PLAYORDER=
